<svg xmlns="http://www.w3.org/2000/svg" id="Layer_1" viewBox="0 0 137.6 45.44"><defs><style>      .cls-1 {        fill: #ccba66;      }      .cls-2 {        fill: #fff;      }    </style></defs><path class="cls-1" d="M7.8,6.7l4.84-2.22-1.08,2.32-2.79,1.28-2.76,5.92,5.14-2.36,3.83-8.23,7.43-3.41,4.98,2.36-1.97.9-3.02-1.43-4.82,2.21,5,2.35,6.77-3.11,8.52,4.04.4.41,2.47,5.38-2.32-1.09-1.53-3.32-5.35-2.53,2.61,5.68,7.66,3.6,3.28,7.15-2.11,4.51-.91-1.98,1.19-2.54-2.06-4.5-2.11,4.53,2.97,6.45-4.29,9.19-.41.4-4.97,2.28,1.08-2.32,2.92-1.34,2.79-5.97-5.27,2.42-3.86,8.29-7.48,3.43-4.99-2.4,1.96-.9,3.04,1.47,4.86-2.23-5.05-2.38-6.76,3.11-8.53-4.11-.39-.4-2.42-5.27,2.32,1.09,1.48,3.23,5.49,2.64-2.59-5.64-7.77-3.64-3.23-7.04,2.15-4.61.91,1.98-1.23,2.64,2.01,4.39,2.15-4.63-2.92-6.35L7.4,7.11l.41-.4h0ZM13.48,10.58l5.14-2.36,1.97.92-15.67,7.19v.03s1.99,4.37,1.99,4.37l2.06-4.43,2.33-1.07-6.38,13.71,5,2.35-2.12-4.61.92-1.97,7.1,15.48,4.61-2.11-4.77-2.25-1.07-2.34,14.43,6.79,2.56-5.49-5.19,2.38-1.97-.92,15.78-7.24-2.03-4.42-2.08,4.48-2.33,1.07,6.36-13.66-4.89-2.3,2.05,4.46-.92,1.97-7.09-15.45-4.71,2.16,4.92,2.32,1.07,2.34-14.54-6.84-2.53,5.44h0Z"></path><path class="cls-2" d="M14.21,23.91v-2.38c0-1.61,0-2.56-.03-2.86-.03-.43-.18-.68-.46-.76-.15-.04-.31-.05-.47-.05s-.24-.05-.24-.13c0-.07.11-.11.32-.11.18,0,.49,0,.92.02.44.01.71.02.83.02.1,0,.35,0,.76-.02.4-.01.7-.02.89-.02s.28.04.28.11c0,.09-.07.13-.19.13s-.27.01-.42.04c-.3.05-.47.31-.49.77-.02.3-.03,1.25-.03,2.86v2.38c0,1.61.02,2.6.05,2.96.04.4.21.62.54.66.26.04.49.05.68.05.14,0,.21.04.21.11,0,.09-.09.13-.26.13-.34,0-.76,0-1.25-.02-.49-.01-.78-.02-.86-.02s-.34,0-.76.02c-.43.01-.74.02-.94.02-.18,0-.27-.04-.27-.13,0-.06.1-.1.3-.12.13-.02.27-.03.4-.04.22-.05.35-.27.39-.67.04-.4.07-1.38.07-2.95h0ZM19.38,23.91v-2.38c0-1.61,0-2.56-.03-2.86-.03-.43-.18-.68-.46-.76-.15-.04-.31-.05-.47-.05s-.24-.05-.24-.13c0-.07.11-.11.32-.11.18,0,.49,0,.92.02.44.01.71.02.83.02.1,0,.35,0,.76-.02.4-.01.7-.02.89-.02s.28.04.28.11c0,.09-.07.13-.19.13s-.27.01-.42.04c-.3.05-.47.31-.49.77-.02.3-.03,1.25-.03,2.86v2.38c0,1.61.02,2.6.05,2.96.04.4.21.62.54.66.26.04.49.05.68.05.14,0,.21.04.21.11,0,.09-.09.13-.26.13-.34,0-.76,0-1.25-.02-.49-.01-.78-.02-.86-.02s-.34,0-.76.02c-.43.01-.74.02-.94.02-.18,0-.27-.04-.27-.13,0-.06.1-.1.3-.12.13-.02.27-.03.4-.04.22-.05.35-.27.39-.67.05-.4.07-1.38.07-2.95h0ZM29.39,28.01c-1.96,0-3.5-.49-4.62-1.46-1.12-.98-1.68-2.31-1.68-3.99,0-1.5.53-2.73,1.58-3.69,1.05-.96,2.48-1.44,4.28-1.44.62,0,1.28.05,1.96.13.31.06.77.14,1.35.23.13,0,.2.06.2.16,0,.03-.01.1-.03.23-.02.16-.04.33-.05.51-.01.4-.03.88-.05,1.46-.02.21-.07.31-.16.31s-.13-.1-.13-.3c0-.47-.18-.88-.53-1.24-.23-.24-.59-.44-1.07-.59-.51-.16-1.07-.24-1.67-.24-1.08,0-1.93.28-2.54.84-.83.76-1.24,1.92-1.24,3.5,0,1.48.48,2.69,1.44,3.6.84.8,1.77,1.2,2.81,1.2.58,0,1.02-.04,1.34-.11.48-.11.85-.32,1.13-.65.24-.27.4-.57.46-.89.04-.18.09-.27.18-.27s.12.07.12.2c0,.1-.03.36-.09.78-.07.47-.14.8-.2,1-.06.2-.18.33-.36.4-.51.21-1.32.31-2.43.31h0Z"></path><path class="cls-2" d="M51.83,19.39v-2.75c0-1.87-.01-2.97-.03-3.31-.03-.5-.21-.79-.53-.88-.18-.04-.36-.06-.54-.06s-.27-.05-.27-.16c0-.08.13-.13.38-.13.21,0,.57,0,1.07.02.51.02.83.02.96.02.11,0,.41,0,.88-.02.47-.02.81-.02,1.03-.02s.33.04.33.13c0,.1-.08.16-.22.16s-.31.02-.49.05c-.35.06-.54.36-.57.89-.02.34-.03,1.45-.03,3.31v2.75c0,1.87.02,3.01.06,3.42.04.46.25.71.62.77.3.04.56.06.79.06.16,0,.25.04.25.13,0,.1-.1.16-.3.16-.4,0-.88,0-1.45-.02-.57-.02-.9-.02-.99-.02s-.39,0-.88.02c-.5.02-.86.02-1.09.02-.21,0-.31-.05-.31-.16,0-.07.11-.12.34-.14.16-.02.31-.04.47-.05.25-.05.4-.31.45-.77.05-.46.08-1.6.08-3.42h0ZM60.38,19.39v-2.75c0-1.87-.01-2.97-.03-3.31-.03-.5-.26-.8-.67-.89-.15-.03-.35-.05-.61-.05-.18,0-.27-.05-.27-.14s.11-.14.34-.14c.32,0,.74,0,1.26.02.52.02.81.02.87.02.27,0,.62,0,1.04-.02.42-.02.71-.02.87-.02,1.25,0,2.16.29,2.72.86.41.41.61.9.61,1.49,0,.97-.53,1.88-1.59,2.74.76.26,1.4.65,1.91,1.17.63.64.94,1.37.94,2.2,0,.92-.33,1.69-1,2.33-.77.72-1.83,1.08-3.17,1.08-.11,0-.48-.02-1.09-.05-.61-.03-1.01-.05-1.17-.05-.09,0-.39,0-.88.02-.5.02-.86.02-1.09.02-.21,0-.31-.05-.31-.16,0-.07.11-.12.34-.14.16-.02.31-.04.47-.05.24-.05.39-.34.45-.86.05-.41.08-1.52.08-3.33h0ZM62.25,13.04v3.86c0,.09.04.15.11.17.14.03.38.05.73.05.51,0,.89-.1,1.13-.3.43-.35.64-.91.64-1.66,0-.6-.16-1.14-.47-1.61-.38-.54-.87-.81-1.49-.81-.35,0-.55.02-.59.06-.04.04-.06.12-.06.23h0ZM65.84,21.26c0-1.37-.51-2.4-1.52-3.11-.31-.22-.75-.34-1.3-.38-.2-.01-.42-.02-.67-.02-.06,0-.09.04-.09.11v3.71c0,.54.03.9.09,1.06.06.2.21.34.45.44.3.13.68.19,1.14.19s.87-.13,1.2-.39c.46-.35.69-.89.69-1.61h0ZM72.89,19.39v-2.75c0-1.87-.01-2.97-.03-3.31-.03-.5-.26-.8-.67-.89-.15-.03-.35-.05-.61-.05-.18,0-.27-.05-.27-.14s.11-.14.34-.14c.32,0,.75,0,1.27.02.52.02.81.02.88.02.18,0,.55,0,1.12-.02.57-.02.93-.02,1.09-.02,1.26,0,2.22.22,2.88.67.26.18.49.44.69.8.25.42.38.87.38,1.34,0,1.22-.69,2.39-2.06,3.5,1.14,1.44,1.76,2.22,1.88,2.35.6.76,1.11,1.35,1.52,1.77.57.59,1.16.95,1.75,1.06.13.01.24.02.36.03.18.02.27.07.27.14,0,.1-.1.16-.3.16h-1.49c-.75,0-1.31-.1-1.67-.3-.51-.27-1.22-1.04-2.14-2.3-.45-.64-.96-1.36-1.55-2.16-.06-.07-.16-.11-.28-.11h-1.36c-.08,0-.13.04-.13.13v.22c0,1.76.03,2.87.08,3.32.06.53.27.81.61.85.31.04.57.06.77.06.13,0,.19.04.19.13,0,.1-.1.16-.31.16-.35,0-.82,0-1.4-.02-.58-.02-.88-.02-.9-.02-.07,0-.35,0-.83.02-.48.02-.84.02-1.08.02-.21,0-.31-.05-.31-.16,0-.07.11-.12.34-.14.16-.02.31-.04.47-.05.24-.05.39-.34.45-.86.05-.41.08-1.52.08-3.33h0ZM74.73,13.12v4.75c0,.16.05.25.14.28.29.1.69.16,1.19.16s.87-.09,1.11-.27c.62-.45.92-1.23.92-2.35,0-.99-.28-1.75-.84-2.27-.45-.4-.96-.59-1.55-.59-.5,0-.8.03-.89.09-.05.03-.08.09-.08.19h0ZM90.29,19.84h-3.49c-.06,0-.11.04-.14.12l-.84,2.24c-.16.42-.23.73-.23.95,0,.32.21.48.63.48h.23c.16,0,.23.04.23.13,0,.1-.09.16-.27.16-.17,0-.45,0-.84-.02-.39-.02-.66-.02-.82-.02,0,0-.23,0-.68.02-.45.02-.84.02-1.16.02-.2,0-.3-.05-.3-.16,0-.08.06-.13.19-.13.17,0,.33-.01.48-.03.33-.04.6-.19.81-.44.17-.2.34-.52.52-.97l3.92-9.82c.17-.42.31-.63.44-.63.11,0,.24.17.39.5.96,2.42,2.25,5.62,3.88,9.62.44,1.03.9,1.6,1.38,1.7.19.04.41.06.66.06.14,0,.2.04.2.13,0,.06-.05.1-.16.13-.1.02-.29.03-.56.03-1.29,0-2.28-.01-2.96-.03-.31-.01-.47-.05-.47-.13,0-.08.07-.13.22-.14.17-.05.21-.17.14-.36l-1.25-3.31c-.03-.07-.08-.11-.16-.11h0ZM87.12,19.06h2.88c.07,0,.1-.03.08-.09l-1.41-3.86c-.02-.09-.05-.14-.08-.14-.04,0-.07.05-.09.14l-1.44,3.85c-.02.07,0,.11.06.11h0ZM100.62,17.07h5.97c.06,0,.09-.04.09-.11v-.33c0-1.87-.01-2.97-.03-3.31-.03-.5-.26-.8-.67-.89-.15-.03-.35-.05-.61-.05-.18,0-.27-.05-.27-.14s.11-.14.33-.14c.31,0,.74,0,1.28.02.54.02.87.02.97.02s.4,0,.9-.02c.5-.02.85-.02,1.07-.02s.33.05.33.14-.09.14-.28.14c-.13,0-.28.02-.45.05-.35.06-.55.36-.58.89-.02.34-.03,1.45-.03,3.31v2.75c0,1.77.03,2.89.08,3.35.06.51.27.79.61.84.3.04.57.06.8.06.17,0,.25.04.25.13,0,.1-.1.16-.31.16-.39,0-.87,0-1.44-.02-.57-.02-.91-.02-1-.02s-.39,0-.88.02c-.49.02-.85.02-1.08.02s-.33-.05-.33-.16c0-.07.11-.12.34-.14.16-.02.31-.04.47-.05.24-.05.39-.34.45-.86.05-.41.08-1.52.08-3.33v-1.38c0-.06-.03-.09-.09-.09h-5.97c-.06,0-.09.03-.09.09v1.38c0,1.77.03,2.89.08,3.35.06.51.27.79.61.84.3.04.57.06.8.06.17,0,.25.04.25.13,0,.1-.1.16-.31.16-.39,0-.87,0-1.44-.02-.57-.02-.91-.02-1-.02s-.39,0-.88.02c-.5.02-.86.02-1.09.02-.21,0-.31-.05-.31-.16,0-.07.11-.12.34-.14.16-.02.31-.04.47-.05.24-.05.39-.34.45-.86.05-.41.08-1.52.08-3.33v-2.75c0-1.87-.01-2.97-.03-3.31-.03-.5-.26-.8-.67-.89-.15-.03-.35-.05-.61-.05-.18,0-.27-.05-.27-.14s.11-.14.33-.14c.31,0,.74,0,1.28.02.54.02.87.02.97.02s.4,0,.9-.02c.5-.02.85-.02,1.07-.02s.33.05.33.14-.09.14-.28.14c-.13,0-.28.02-.45.05-.35.06-.55.36-.58.89-.02.34-.03,1.45-.03,3.31v.33c0,.07.03.11.09.11h0ZM115.24,19.39v-2.75c0-1.87-.01-2.97-.03-3.31-.03-.5-.21-.79-.53-.88-.18-.04-.36-.06-.54-.06s-.27-.05-.27-.16c0-.08.13-.13.38-.13.21,0,.57,0,1.07.02.51.02.83.02.96.02.11,0,.41,0,.88-.02.47-.02.81-.02,1.03-.02s.33.04.33.13c0,.1-.08.16-.22.16s-.31.02-.49.05c-.35.06-.54.36-.57.89-.02.34-.03,1.45-.03,3.31v2.75c0,1.87.02,3.01.06,3.42.04.46.25.71.62.77.3.04.56.06.79.06.16,0,.25.04.25.13,0,.1-.1.16-.3.16-.4,0-.88,0-1.45-.02-.57-.02-.9-.02-.99-.02s-.39,0-.88.02c-.5.02-.86.02-1.09.02-.21,0-.31-.05-.31-.16,0-.07.11-.12.34-.14.16-.02.31-.04.47-.05.25-.05.4-.31.45-.77.05-.46.08-1.6.08-3.42h0ZM122.81,22.36l1.55-10.19c.04-.27.13-.41.27-.41.13,0,.27.16.42.48l4.27,8.82,4.25-8.93c.11-.25.23-.38.34-.38.14,0,.23.16.28.48l1.42,9.66c.07.52.16.9.27,1.13.1.23.27.38.5.45.34.1.67.16.97.16.17,0,.25.04.25.11,0,.11-.14.17-.41.17-1.32,0-2.38-.03-3.17-.09-.3-.02-.45-.08-.45-.17,0-.07.05-.13.16-.17.11-.04.14-.27.09-.67l-.94-6.88h-.06l-3.41,7.11c-.28.59-.47.88-.58.88-.09,0-.28-.26-.55-.78-.99-1.89-1.59-3.07-1.8-3.55-.35-.77-.9-1.93-1.63-3.48h-.06l-.81,6.22c-.03.24-.05.48-.05.73s.16.43.47.5c.23.05.45.08.66.08.16,0,.23.04.23.11,0,.11-.13.17-.38.17s-.57,0-.96-.02c-.39-.02-.62-.02-.68-.02-.08,0-.32,0-.7.02-.38.02-.66.02-.85.02s-.28-.06-.28-.17c0-.07.08-.11.25-.11s.32-.02.47-.05c.31-.06.53-.47.64-1.24h0Z"></path><path class="cls-2" d="M51.05,31.61v-1.2c0-.82,0-1.3-.01-1.45-.01-.22-.09-.35-.23-.38-.08-.02-.16-.03-.24-.03s-.12-.02-.12-.07c0-.04.05-.05.16-.05.09,0,.25,0,.47.01.22,0,.36.01.42.01.05,0,.18,0,.38-.01.2,0,.36-.01.45-.01s.14.02.14.05c0,.05-.03.07-.1.07s-.14,0-.21.02c-.15.03-.24.16-.25.39,0,.15-.01.63-.01,1.45v1.2c0,.81,0,1.31.03,1.5.02.2.11.31.27.33.13.02.25.03.34.03.07,0,.11.02.11.05,0,.05-.04.07-.13.07-.17,0-.38,0-.63-.01-.25,0-.39-.01-.43-.01s-.17,0-.39.01c-.22,0-.37.01-.47.01-.09,0-.14-.02-.14-.07,0-.03.05-.05.15-.06.07,0,.14-.02.2-.02.11-.02.18-.14.2-.34.02-.2.03-.7.03-1.49h0ZM56.65,33.68c-.4,0-.73-.06-1-.18-.09-.04-.13-.11-.13-.23,0-.25.01-.54.03-.89,0-.12.04-.18.08-.18s.07.04.07.12c0,.1.02.21.06.35.14.46.46.69.98.69.29,0,.52-.08.69-.25.15-.15.23-.33.23-.53,0-.38-.22-.74-.67-1.09l-.31-.25c-.67-.53-1.01-1.07-1.01-1.62,0-.38.15-.69.44-.93.29-.24.67-.36,1.14-.36.3,0,.6.04.91.12.06.02.1.05.1.08,0,0,0,.07-.01.24,0,.17-.01.36-.01.58,0,.14-.03.2-.08.2-.05,0-.07-.04-.07-.12,0-.15-.06-.3-.18-.45-.18-.22-.43-.33-.74-.33-.25,0-.45.06-.59.19-.15.13-.22.3-.22.51,0,.16.05.31.15.45.1.14.29.32.57.53l.19.14c.41.31.7.6.87.86.17.26.25.56.25.88,0,.51-.21.91-.64,1.19-.29.19-.65.28-1.09.28h0ZM62.76,30.41v1.2c0,.51,0,.85.02,1.02.02.25.06.4.12.45.11.1.39.15.83.15.41,0,.68-.06.8-.19.1-.11.16-.25.18-.41,0-.07.03-.1.08-.1.04,0,.05.04.05.12,0,.27-.03.53-.1.79-.03.1-.08.15-.16.17-.03,0-.12.01-.27.01-.36,0-.75,0-1.15-.02-.41-.01-.68-.02-.83-.02-.04,0-.17,0-.39.01-.22,0-.37.01-.47.01-.09,0-.14-.02-.14-.07,0-.03.05-.05.15-.06.07,0,.14-.02.2-.02.1-.02.17-.15.2-.38.02-.18.03-.66.03-1.45v-1.2c0-.82,0-1.3-.01-1.45,0-.17-.06-.28-.15-.34-.07-.05-.2-.07-.37-.07-.08,0-.12-.02-.12-.06s.05-.06.15-.06c.12,0,.29,0,.52.01.23,0,.37.01.42.01.05,0,.19,0,.43-.01.24,0,.41-.01.5-.01s.14.02.14.06-.04.06-.12.06c-.1,0-.19,0-.27.02-.15.03-.24.16-.25.39,0,.15-.01.63-.01,1.45h0ZM69.73,31.81h-1.52s-.05.02-.06.05l-.37.98c-.07.18-.1.32-.1.42,0,.14.09.21.27.21h.1c.07,0,.1.02.1.05,0,.05-.04.07-.12.07-.07,0-.19,0-.37-.01-.17,0-.29-.01-.36-.01,0,0-.1,0-.3.01-.2,0-.37.01-.51.01-.09,0-.13-.02-.13-.07,0-.04.03-.05.08-.05.07,0,.14,0,.21-.01.15-.02.26-.08.36-.19.07-.09.15-.23.23-.42l1.71-4.29c.07-.18.14-.27.19-.27.05,0,.11.07.17.22.42,1.06.98,2.46,1.69,4.2.19.45.39.7.6.74.08.02.18.03.29.03.06,0,.09.02.09.05,0,.03-.02.05-.07.05-.05,0-.13.01-.25.01-.56,0-.99,0-1.29-.01-.14,0-.2-.02-.2-.05,0-.04.03-.06.1-.06.07-.02.09-.08.06-.16l-.55-1.45s-.04-.05-.07-.05h0ZM68.35,31.46h1.26s.04-.01.03-.04l-.61-1.69s-.02-.06-.03-.06c-.02,0-.03.02-.04.06l-.63,1.68s0,.05.03.05h0ZM74.18,32.91l.68-4.45c.02-.12.06-.18.12-.18.05,0,.12.07.18.21l1.86,3.85,1.86-3.9c.05-.11.1-.16.15-.16.06,0,.1.07.12.21l.62,4.22c.03.23.07.39.12.49.05.1.12.17.22.2.15.05.29.07.42.07.07,0,.11.02.11.05,0,.05-.06.08-.18.08-.58,0-1.04-.01-1.39-.04-.13,0-.2-.03-.2-.08,0-.03.02-.06.07-.08.05-.02.06-.12.04-.29l-.41-3.01h-.03l-1.49,3.11c-.12.26-.21.38-.25.38-.04,0-.12-.11-.24-.34-.43-.83-.69-1.34-.79-1.55-.15-.34-.39-.84-.71-1.52h-.03l-.36,2.72c-.01.1-.02.21-.02.32s.07.19.2.22c.1.02.2.03.29.03.07,0,.1.02.1.05,0,.05-.05.08-.16.08s-.25,0-.42-.01c-.17,0-.27-.01-.3-.01-.04,0-.14,0-.3.01-.17,0-.29.01-.37.01s-.12-.03-.12-.08c0-.03.04-.05.11-.05s.14,0,.2-.02c.14-.03.23-.21.28-.54h0ZM83.62,31.61v-1.2c0-.82,0-1.3-.01-1.45-.01-.22-.09-.35-.23-.38-.08-.02-.16-.03-.24-.03s-.12-.02-.12-.07c0-.04.05-.05.16-.05.09,0,.25,0,.47.01.22,0,.36.01.42.01.05,0,.18,0,.38-.01.2,0,.36-.01.45-.01s.14.02.14.05c0,.05-.03.07-.1.07s-.14,0-.21.02c-.15.03-.24.16-.25.39,0,.15-.01.63-.01,1.45v1.2c0,.81,0,1.31.03,1.5.02.2.11.31.27.33.13.02.25.03.34.03.07,0,.11.02.11.05,0,.05-.04.07-.13.07-.17,0-.38,0-.63-.01-.25,0-.39-.01-.43-.01s-.17,0-.39.01c-.22,0-.37.01-.47.01-.09,0-.14-.02-.14-.07,0-.03.05-.05.15-.06.07,0,.14-.02.2-.02.11-.02.18-.14.2-.34.02-.2.03-.7.03-1.49h0ZM91.05,33.68c-.99,0-1.77-.25-2.34-.74-.57-.49-.85-1.17-.85-2.02,0-.76.27-1.38.8-1.87.53-.48,1.25-.73,2.17-.73.31,0,.65.02.99.07.16.03.39.07.69.12.07,0,.1.03.1.08,0,.01,0,.05-.02.12-.01.08-.02.17-.02.26,0,.2-.01.45-.03.74,0,.1-.04.16-.08.16s-.07-.05-.07-.15c0-.24-.09-.45-.27-.63-.12-.12-.3-.22-.54-.3-.26-.08-.54-.12-.85-.12-.55,0-.97.14-1.28.42-.42.38-.63.97-.63,1.77,0,.75.24,1.36.73,1.82.42.41.9.61,1.42.61.29,0,.52-.02.68-.05.24-.05.43-.16.57-.33.12-.14.2-.29.23-.45.02-.09.05-.14.09-.14s.06.03.06.1c0,.05-.02.18-.05.4-.04.24-.07.41-.1.51-.03.1-.09.17-.18.2-.26.1-.67.16-1.23.16h0ZM100.46,33.68c-.99,0-1.77-.25-2.34-.74-.57-.49-.85-1.17-.85-2.02,0-.76.27-1.38.8-1.87.53-.48,1.25-.73,2.17-.73.31,0,.65.02.99.07.16.03.39.07.69.12.07,0,.1.03.1.08,0,.01,0,.05-.02.12-.01.08-.02.17-.02.26,0,.2-.01.45-.03.74,0,.1-.04.16-.08.16s-.07-.05-.07-.15c0-.24-.09-.45-.27-.63-.12-.12-.3-.22-.54-.3-.26-.08-.54-.12-.85-.12-.55,0-.97.14-1.28.42-.42.38-.63.97-.63,1.77,0,.75.24,1.36.73,1.82.42.41.9.61,1.42.61.29,0,.52-.02.68-.05.24-.05.43-.16.57-.33.12-.14.2-.29.23-.45.02-.09.05-.14.09-.14s.06.03.06.1c0,.05-.02.18-.05.4-.04.24-.07.41-.1.51-.03.1-.09.17-.18.2-.26.1-.67.16-1.23.16h0ZM105.37,31.61v-1.2c0-.82,0-1.3-.01-1.45-.01-.22-.11-.35-.29-.39-.06-.01-.15-.02-.27-.02-.08,0-.12-.02-.12-.06s.05-.06.15-.06c.14,0,.32,0,.56.01.23,0,.38.01.43.01,1.08,0,1.65,0,1.71,0,.12,0,.22-.02.29-.04.08-.02.11-.03.11-.03.03,0,.04.02.04.06,0,0,0,.05-.02.12-.01.09-.02.2-.03.32,0,.12-.02.27-.04.45,0,.05-.03.08-.07.08-.03,0-.05-.03-.06-.08,0-.05-.01-.1-.02-.14,0-.05-.01-.09-.03-.12-.05-.13-.21-.21-.46-.25-.16-.02-.48-.03-.97-.03-.03,0-.05.02-.05.07v1.73c0,.05.02.08.05.08.63,0,.99,0,1.1-.01.08,0,.14-.01.18-.02.07-.02.12-.05.15-.08.06-.06.09-.09.11-.09.03,0,.05.02.05.05,0,0,0,.05-.02.14-.01.1-.02.23-.03.36-.02.26-.03.41-.03.46,0,.09-.02.13-.06.13s-.06-.02-.06-.07,0-.13-.03-.24c-.04-.15-.16-.24-.38-.27-.13-.01-.45-.02-.97-.02-.03,0-.04.02-.04.07v1.6c0,.24.06.4.16.47.1.07.32.11.66.11.31,0,.53-.03.64-.08.16-.07.26-.24.31-.51.01-.07.04-.1.08-.1s.05.04.05.12c0,.28-.03.53-.09.76-.02.08-.05.13-.1.15-.04.02-.13.03-.27.03-.4,0-.79,0-1.18-.02-.39-.01-.63-.02-.71-.02-.04,0-.17,0-.39.01-.22,0-.37.01-.47.01-.09,0-.14-.02-.14-.07,0-.03.05-.05.15-.06.07,0,.14-.02.2-.02.1-.02.17-.15.2-.38.02-.18.03-.66.03-1.45h0ZM111.9,29.79l.08,2.87c.01.46.09.71.24.76.01,0,.1.02.27.03.14.02.2.04.2.07,0,.05-.05.07-.16.07-.17,0-.35,0-.54-.01-.19,0-.29-.01-.31-.01,0,0-.08,0-.26.01-.18,0-.34.01-.48.01-.1,0-.15-.02-.15-.07,0-.03.06-.05.18-.06.08,0,.16-.02.24-.03.09-.03.14-.1.17-.22.02-.1.04-.31.04-.63l.06-4.04c0-.15.03-.23.09-.23.04,0,.12.07.25.21.37.4,1.08,1.13,2.12,2.19.46.48.97,1,1.5,1.56h.03l-.07-3.07c0-.17-.01-.28-.03-.35-.04-.14-.1-.23-.2-.27-.07-.03-.19-.04-.36-.04-.07,0-.11-.02-.11-.06s.06-.06.18-.06c.14,0,.3,0,.49.01.19,0,.3.01.33.01,0,0,.08,0,.24-.01.15,0,.3-.01.43-.01.1,0,.16.02.16.06s-.04.06-.12.06c-.23,0-.37.08-.42.23-.02.08-.04.21-.04.38l-.08,4.31c0,.14-.03.21-.09.21-.05,0-.13-.05-.23-.15-.44-.43-1.11-1.1-2.01-2.01-.31-.31-.66-.67-1.04-1.09-.2-.21-.39-.43-.58-.64h-.02ZM120.86,31.61v-2.8l-1.02.03c-.36,0-.58.08-.66.2-.06.09-.1.17-.12.24-.01.05-.04.08-.08.08-.04,0-.06-.04-.06-.11,0-.12.05-.38.14-.79.02-.09.05-.13.08-.13.01,0,.05.01.11.04.06.03.12.04.18.04.25.02.47.03.68.03h2.7c.18,0,.33-.01.47-.03.14-.02.2-.03.18-.03.04,0,.05.05.05.14,0,.05,0,.17-.01.38,0,.21-.01.35-.02.41,0,.07-.02.1-.05.1-.04,0-.07-.05-.08-.14v-.08c-.03-.24-.3-.37-.81-.38l-.86-.02v2.8c0,.77.01,1.26.03,1.46.03.22.12.35.27.37.13.02.25.03.35.03.07,0,.11.02.11.05,0,.05-.04.07-.13.07-.17,0-.38,0-.64-.01-.25,0-.4-.01-.44-.01s-.17,0-.39.01c-.22,0-.37.01-.47.01-.09,0-.14-.02-.14-.07,0-.03.05-.05.15-.06.07,0,.14-.02.2-.02.1-.02.17-.15.2-.38.02-.2.03-.69.03-1.45h0ZM126.69,31.61v-1.2c0-.82,0-1.3-.01-1.45-.01-.22-.11-.35-.29-.39-.06-.01-.15-.02-.27-.02-.08,0-.12-.02-.12-.06s.05-.06.15-.06c.14,0,.32,0,.56.01.23,0,.38.01.43.01,1.08,0,1.65,0,1.71,0,.12,0,.22-.02.29-.04.08-.02.11-.03.11-.03.03,0,.04.02.04.06,0,0,0,.05-.02.12-.01.09-.02.2-.03.32,0,.12-.02.27-.04.45,0,.05-.03.08-.07.08-.03,0-.05-.03-.06-.08,0-.05-.01-.1-.02-.14,0-.05-.01-.09-.03-.12-.05-.13-.21-.21-.46-.25-.16-.02-.48-.03-.97-.03-.03,0-.05.02-.05.07v1.73c0,.05.02.08.05.08.63,0,.99,0,1.1-.01.08,0,.14-.01.18-.02.07-.02.12-.05.15-.08.06-.06.09-.09.11-.09.03,0,.05.02.05.05,0,0,0,.05-.02.14-.01.1-.02.23-.03.36-.02.26-.03.41-.03.46,0,.09-.02.13-.06.13s-.06-.02-.06-.07,0-.13-.03-.24c-.04-.15-.16-.24-.38-.27-.13-.01-.45-.02-.97-.02-.03,0-.04.02-.04.07v1.6c0,.24.06.4.16.47.1.07.32.11.66.11.31,0,.53-.03.64-.08.16-.07.26-.24.31-.51.01-.07.04-.1.08-.1s.05.04.05.12c0,.28-.03.53-.09.76-.02.08-.05.13-.1.15-.04.02-.13.03-.27.03-.4,0-.79,0-1.18-.02-.39-.01-.63-.02-.71-.02-.04,0-.17,0-.39.01-.22,0-.37.01-.47.01-.09,0-.14-.02-.14-.07,0-.03.05-.05.15-.06.07,0,.14-.02.2-.02.1-.02.17-.15.2-.38.02-.18.03-.66.03-1.45h0ZM132.9,31.61v-1.2c0-.82,0-1.3-.01-1.45-.01-.22-.11-.35-.29-.39-.06-.01-.15-.02-.27-.02-.08,0-.12-.02-.12-.06s.05-.06.15-.06c.14,0,.33,0,.55.01.23,0,.36.01.38.01.08,0,.24,0,.49-.01.25,0,.41-.01.47-.01.55,0,.97.1,1.26.29.11.08.21.19.3.35.11.18.16.38.16.59,0,.53-.3,1.04-.9,1.53.5.63.77.97.82,1.02.26.33.48.59.66.77.25.26.51.41.76.46.05,0,.11,0,.16.01.08,0,.12.03.12.06,0,.05-.04.07-.13.07h-.65c-.33,0-.57-.04-.73-.13-.22-.12-.53-.45-.94-1-.2-.28-.42-.59-.68-.94-.03-.03-.07-.05-.12-.05h-.59s-.05.02-.05.05v.09c0,.77.01,1.25.03,1.45.03.23.12.36.27.37.14.02.25.03.33.03.05,0,.08.02.08.05,0,.05-.05.07-.14.07-.15,0-.36,0-.61-.01-.25,0-.38-.01-.39-.01-.03,0-.15,0-.36.01-.21,0-.37.01-.47.01-.09,0-.14-.02-.14-.07,0-.03.05-.05.15-.06.07,0,.14-.02.2-.02.1-.02.17-.15.2-.38.02-.18.03-.66.03-1.45h0ZM133.71,28.87v2.08c0,.07.02.11.06.12.13.05.3.07.52.07s.38-.04.48-.12c.27-.2.4-.54.4-1.02,0-.43-.12-.76-.37-.99-.2-.17-.42-.26-.68-.26-.22,0-.35.01-.39.04-.02.01-.03.04-.03.08h0Z"></path></svg>